<svg viewBox="0 0 24 24" fill="none" xmlns="http://www.w3.org/2000/svg"><g id="SVGRepo_bgCarrier" stroke-width="0"></g><g id="SVGRepo_tracerCarrier" stroke-linecap="round" stroke-linejoin="round"></g><g id="SVGRepo_iconCarrier"><path d="M8 21V18M4 21V18.5C4 15.4624 6.46243 13 9.5 13H13M17.5 22V17M17.5 17C19.9853 17 22 14.9853 22 12.5C22 10.0147 19.9853 8 17.5 8C16.8505 8 16.2331 8.1376 15.6755 8.38524M17.5 17C15.0147 17 13 14.9853 13 12.5C13 11.7562 13.1805 11.0545 13.5 10.4364M15.5 20H19.5M16 6.5C16 8.70914 14.2091 10.5 12 10.5C9.79086 10.5 8 8.70914 8 6.5C8 4.29086 9.79086 2.5 12 2.5C14.2091 2.5 16 4.29086 16 6.5Z" stroke="#FFFFFF" stroke-linecap="round" stroke-width="1.4"></path></g></svg>